# xmcd
# Track frame offsets:
# 180
# 17602
# 30675
# 45913
# 57608
# 73606
# 86148
# 103380
# 116998
# 133963
# 147470
# 162294
# 180074
# 193564
#
# Disc length: 2756 seconds
# Revision: 0
# Processed by: cddbd v1.4PL0 Copyright (c) Steve Scherf et al.
# Submitted via: VisiTrax 2.9.5.180 - For more info visit www.synapsa.com
#
DISCID=ca0ac20e
DTITLE=Dusty Martin - Flyin' high over Texas
DYEAR=1994
DGENRE=
TTITLE0=When that new breed falls apart
TTITLE1=I'm stuck on you
TTITLE2=Flyin' high over Texas
TTITLE3=Don't let go
TTITLE4=Take good care of my woman
TTITLE5=Dream on
TTITLE6=So I won't lose my mind
TTITLE7=Get your stuff together
TTITLE8=You're still gone
TTITLE9=Mixed emotions
TTITLE10=Unfaithfully yours
TTITLE11=Sue
TTITLE12=Reachin' up to touch the bottom
TTITLE13=It ain't worth fixin'
EXTD=
EXTT0=
EXTT1=
EXTT2=
EXTT3=
EXTT4=
EXTT5=
EXTT6=
EXTT7=
EXTT8=
EXTT9=
EXTT10=
EXTT11=
EXTT12=
EXTT13=
PLAYORDER=
